<svg width="25" height="28" viewBox="0 0 25 28" fill="none" xmlns="http://www.w3.org/2000/svg">
<g clip-path="url(#clip0_9_190)">
<path fill-rule="evenodd" clip-rule="evenodd" d="M2.73441 13.2094C2.53753 13.6933 2.5 13.9406 2.5 14V24.1841C2.5 24.8855 3.05815 25.4545 3.75 25.4545H7.5V17.8182C7.5 16.4123 8.61929 15.2727 10 15.2727H15C16.3807 15.2727 17.5 16.4123 17.5 17.8182V25.4545H21.25C21.9419 25.4545 22.5 24.8855 22.5 24.1841V14C22.5 13.9406 22.4625 13.6933 22.2656 13.2094C22.0827 12.7599 21.8054 12.2088 21.4434 11.585C20.7205 10.3394 19.7062 8.88362 18.571 7.49659C17.4331 6.10639 16.2049 4.82324 15.0628 3.90032C14.4919 3.43896 13.967 3.08774 13.5069 2.85651C13.0363 2.62006 12.7051 2.54545 12.5 2.54545C12.2949 2.54545 11.9637 2.62006 11.4931 2.85651C11.033 3.08774 10.5081 3.43896 9.93723 3.90032C8.79511 4.82324 7.56685 6.10639 6.42902 7.49659C5.29381 8.88362 4.27951 10.3394 3.55663 11.585C3.1946 12.2088 2.91731 12.7599 2.73441 13.2094ZM10.3867 0.573885C11.0441 0.243574 11.7676 0 12.5 0C13.2324 0 13.9559 0.243574 14.6133 0.573885C15.281 0.909414 15.9574 1.37354 16.6169 1.90649C17.9357 2.97221 19.2856 4.39361 20.4915 5.86704C21.7001 7.34365 22.7951 8.91062 23.5958 10.29C23.9954 10.9787 24.3334 11.6406 24.5753 12.2352C24.8031 12.7954 25 13.4231 25 14V24.1841C25 26.2944 23.3196 28 21.25 28H17.5C16.1193 28 15 26.8604 15 25.4545V17.8182H10V25.4545C10 26.8604 8.88071 28 7.5 28H3.75C1.68042 28 0 26.2944 0 24.1841V14C0 13.4231 0.19685 12.7954 0.424775 12.2352C0.666675 11.6406 1.00461 10.9787 1.40431 10.29C2.20486 8.91062 3.29994 7.34365 4.50848 5.86704C5.7144 4.39361 7.06426 2.97221 8.38309 1.90649C9.04262 1.37354 9.71901 0.909414 10.3867 0.573885Z" fill="#0F0F0F"/>
</g>
<defs>
<clipPath id="clip0_9_190">
<rect width="25" height="28" fill="white"/>
</clipPath>
</defs>
</svg>
