<svg width="15" height="15" viewBox="0 0 15 15" fill="none" xmlns="http://www.w3.org/2000/svg">
<path d="M1 1L14 14" stroke="white" stroke-width="1.06506" stroke-linecap="round" stroke-linejoin="round"/>
<path d="M6.41666 6.54459C6.19191 6.79917 6.05555 7.1337 6.05555 7.50001C6.05555 8.29771 6.70223 8.94446 7.49999 8.94446C7.8663 8.94446 8.20077 8.8081 8.45542 8.58335" stroke="white" stroke-width="1.06506" stroke-linecap="round" stroke-linejoin="round"/>
<path d="M4.15022 4.29413C2.93557 5.14532 1.92368 6.35802 1 7.5C2.36396 9.66017 4.81456 11.8333 7.5 11.8333C8.61937 11.8333 9.69801 11.4558 10.6741 10.8589" stroke="white" stroke-width="1.06506" stroke-linecap="round" stroke-linejoin="round"/>
<path d="M7.5 3.16669C10.395 3.16669 12.34 5.44761 14 7.50002C13.77 7.86424 13.5091 8.22889 13.2214 8.58335" stroke="white" stroke-width="1.06506" stroke-linecap="round" stroke-linejoin="round"/>
</svg>
