<svg width="38" height="29" viewBox="0 0 38 29" fill="none" xmlns="http://www.w3.org/2000/svg">
<path d="M36.9999 7.31835C36.9999 3.78682 34.0325 0.091995 34.0325 1.20016C34.0325 2.30833 34.5814 17.0258 34.5814 17.0258L34.0325 26.65C34.0325 27.3064 34.5514 27.8384 35.1916 27.8384C35.8317 27.8384 36.3506 27.3064 36.3506 26.65L36.0441 16.9705C36.0441 16.9705 36.9999 10.8499 36.9999 7.31835Z" stroke="black" stroke-width="0.820339" stroke-miterlimit="10"/>
<mask id="path-2-inside-1_5_82" fill="white">
<path d="M36.9999 7.31835C36.9999 3.78682 34.0325 0.091995 34.0325 1.20016C34.0325 2.30833 34.5814 17.0258 34.5814 17.0258L34.0325 26.65C34.0325 27.3064 34.5514 27.8384 35.1916 27.8384C35.8317 27.8384 36.3506 27.3064 36.3506 26.65L36.0441 16.9705C36.0441 16.9705 36.9999 10.8499 36.9999 7.31835Z"/>
</mask>
<path d="M34.5814 17.0258L38.6764 17.2593L38.6874 17.0662L38.6802 16.8729L34.5814 17.0258ZM34.0325 26.65L29.9375 26.4165L29.9308 26.5331V26.65H34.0325ZM36.3506 26.65H40.4523V26.5851L40.4502 26.5202L36.3506 26.65ZM36.0441 16.9705L31.9915 16.3376L31.9323 16.7168L31.9445 17.1003L36.0441 16.9705ZM41.1016 7.31835C41.1016 4.53207 39.9846 1.98179 39.026 0.396734C38.5571 -0.378557 37.9346 -1.2435 37.2116 -1.88212C37.0155 -2.05538 36.7228 -2.29193 36.3465 -2.5077C36.0384 -2.68436 35.2865 -3.07675 34.2547 -3.10056C32.9297 -3.13114 31.5089 -2.52531 30.6419 -1.21099C29.9743 -0.198829 29.9308 0.802266 29.9308 1.20016H38.1342C38.1342 1.45954 38.1139 2.35964 37.4898 3.3059C36.6663 4.55432 35.3092 5.12935 34.0654 5.10064C33.1147 5.0787 32.4614 4.72086 32.2663 4.609C32.0029 4.45802 31.8378 4.31652 31.7807 4.26612C31.6141 4.11896 31.7335 4.19067 32.0065 4.642C32.5315 5.5102 32.8982 6.5731 32.8982 7.31835H41.1016ZM29.9308 1.20016C29.9308 1.85159 30.0733 5.9305 30.2079 9.67585C30.2766 11.5864 30.3452 13.462 30.3967 14.8598C30.4225 15.5588 30.4439 16.1384 30.4589 16.5433C30.4664 16.7457 30.4723 16.9045 30.4764 17.0127C30.4784 17.0668 30.4799 17.1082 30.481 17.1362C30.4815 17.1502 30.4819 17.1608 30.4822 17.1679C30.4823 17.1714 30.4824 17.1741 30.4825 17.1759C30.4825 17.1768 30.4825 17.1775 30.4825 17.1779C30.4825 17.1782 30.4825 17.1783 30.4825 17.1784C30.4826 17.1786 30.4826 17.1786 34.5814 17.0258C38.6802 16.8729 38.6802 16.8729 38.6802 16.8727C38.6802 16.8726 38.6802 16.8725 38.6802 16.8723C38.6802 16.8718 38.6802 16.8712 38.6801 16.8703C38.6801 16.8685 38.68 16.8658 38.6798 16.8623C38.6796 16.8553 38.6792 16.8447 38.6787 16.8308C38.6776 16.803 38.6761 16.7617 38.6741 16.7077C38.6701 16.5998 38.6642 16.4413 38.6567 16.2392C38.6417 15.8349 38.6203 15.256 38.5945 14.5579C38.5431 13.1615 38.4746 11.2885 38.406 9.3812C38.3374 7.47328 38.269 5.53363 38.2177 4.00306C38.192 3.23729 38.1708 2.57776 38.156 2.07732C38.1486 1.82676 38.143 1.62047 38.1392 1.46278C38.1373 1.38391 38.136 1.32079 38.1352 1.27248C38.1343 1.22031 38.1342 1.19975 38.1342 1.20016H29.9308ZM30.4864 16.7922L29.9375 26.4165L38.1276 26.8835L38.6764 17.2593L30.4864 16.7922ZM29.9308 26.65C29.9308 29.4742 32.1899 31.9401 35.1916 31.9401V23.7367C36.913 23.7367 38.1342 25.1386 38.1342 26.65H29.9308ZM35.1916 31.9401C38.1933 31.9401 40.4523 29.4742 40.4523 26.65H32.2489C32.2489 25.1386 33.4701 23.7367 35.1916 23.7367V31.9401ZM40.4502 26.5202L40.1437 16.8407L31.9445 17.1003L32.251 26.7798L40.4502 26.5202ZM36.0441 16.9705C40.0967 17.6034 40.0967 17.6032 40.0967 17.6029C40.0968 17.6028 40.0968 17.6026 40.0968 17.6024C40.0969 17.602 40.097 17.6014 40.0971 17.6008C40.0973 17.5996 40.0975 17.598 40.0978 17.5961C40.0984 17.5922 40.0993 17.5868 40.1003 17.58C40.1024 17.5664 40.1054 17.547 40.1092 17.5221C40.1168 17.4723 40.1278 17.4006 40.1415 17.309C40.169 17.1258 40.2078 16.8629 40.2541 16.5375C40.3467 15.8876 40.4702 14.9829 40.5939 13.9622C40.8345 11.9774 41.1016 9.35178 41.1016 7.31835H32.8982C32.8982 8.81645 32.6875 11.0169 32.4501 12.9752C32.3349 13.9261 32.2194 14.7724 32.1328 15.3805C32.0895 15.684 32.0536 15.9269 32.0288 16.0922C32.0165 16.1749 32.0068 16.2381 32.0005 16.2797C31.9973 16.3005 31.9949 16.3159 31.9934 16.3257C31.9926 16.3306 31.9921 16.334 31.9918 16.336C31.9916 16.337 31.9915 16.3377 31.9915 16.3379C31.9915 16.3381 31.9915 16.3381 31.9915 16.3381C31.9915 16.338 31.9915 16.3379 31.9915 16.3379C31.9915 16.3378 31.9915 16.3376 36.0441 16.9705Z" fill="black" mask="url(#path-2-inside-1_5_82)"/>
<path d="M5.30067 1.63977C5.30067 1.63977 5.36529 4.11055 5.36529 6.45643C5.36529 8.21587 4.84413 9.32077 4.10142 9.76328L4.11793 26.65C4.11793 27.3064 3.59903 27.8384 2.95889 27.8384C2.31876 27.8384 1.79985 27.3064 1.79985 26.65L2.26973 9.76679C1.52389 9.32659 1 8.22044 1 6.45643C1 4.11055 1.06462 1.63977 1.06462 1.63977" stroke="black" stroke-width="1.29858" stroke-miterlimit="10" stroke-linecap="round" stroke-linejoin="round"/>
<path d="M3.18268 1.63977V7.33534" stroke="black" stroke-width="1.29858" stroke-miterlimit="10" stroke-linecap="round" stroke-linejoin="round"/>
<path d="M19.5446 26.2209C25.9324 26.2209 31.1108 20.9111 31.1108 14.3612C31.1108 7.81129 25.9324 2.50153 19.5446 2.50153C13.1567 2.50153 7.97833 7.81129 7.97833 14.3612C7.97833 20.9111 13.1567 26.2209 19.5446 26.2209Z" stroke="black" stroke-width="2.46102" stroke-miterlimit="10" stroke-linecap="round" stroke-linejoin="round"/>
<path d="M19.547 21.6055C23.4356 21.6055 26.5879 18.3732 26.5879 14.386C26.5879 10.3988 23.4356 7.16647 19.547 7.16647C15.6585 7.16647 12.5062 10.3988 12.5062 14.386C12.5062 18.3732 15.6585 21.6055 19.547 21.6055Z" fill="black"/>
<path d="M1 7.00613H5.39313L4.66094 10.0092L4.32399 26.5933C4.3078 27.3901 3.65722 28.0276 2.86022 28.0276C2.03999 28.0276 1.37978 27.3538 1.39645 26.5338L1.73219 10.0092L1 7.00613Z" fill="black"/>
</svg>
