<svg width="11" height="12" viewBox="0 0 11 12" fill="none" xmlns="http://www.w3.org/2000/svg">
<path d="M9.16667 12C8.65741 12 8.22454 11.825 7.86806 11.475C7.51157 11.125 7.33333 10.7 7.33333 10.2C7.33333 10.13 7.33843 10.0575 7.34861 9.9825C7.3588 9.9075 7.37407 9.84 7.39444 9.78L3.08611 7.32C2.91296 7.47 2.71944 7.5875 2.50556 7.6725C2.29167 7.7575 2.06759 7.8 1.83333 7.8C1.32407 7.8 0.891204 7.625 0.534722 7.275C0.178241 6.925 0 6.5 0 6C0 5.5 0.178241 5.075 0.534722 4.725C0.891204 4.375 1.32407 4.2 1.83333 4.2C2.06759 4.2 2.29167 4.2425 2.50556 4.3275C2.71944 4.4125 2.91296 4.53 3.08611 4.68L7.39444 2.22C7.37407 2.16 7.3588 2.0925 7.34861 2.0175C7.33843 1.9425 7.33333 1.87 7.33333 1.8C7.33333 1.3 7.51157 0.875 7.86806 0.525C8.22454 0.175 8.65741 0 9.16667 0C9.67593 0 10.1088 0.175 10.4653 0.525C10.8218 0.875 11 1.3 11 1.8C11 2.3 10.8218 2.725 10.4653 3.075C10.1088 3.425 9.67593 3.6 9.16667 3.6C8.93241 3.6 8.70833 3.5575 8.49444 3.4725C8.28056 3.3875 8.08704 3.27 7.91389 3.12L3.60556 5.58C3.62593 5.64 3.6412 5.7075 3.65139 5.7825C3.66157 5.8575 3.66667 5.93 3.66667 6C3.66667 6.07 3.66157 6.1425 3.65139 6.2175C3.6412 6.2925 3.62593 6.36 3.60556 6.42L7.91389 8.88C8.08704 8.73 8.28056 8.6125 8.49444 8.5275C8.70833 8.4425 8.93241 8.4 9.16667 8.4C9.67593 8.4 10.1088 8.575 10.4653 8.925C10.8218 9.275 11 9.7 11 10.2C11 10.7 10.8218 11.125 10.4653 11.475C10.1088 11.825 9.67593 12 9.16667 12ZM9.16667 2.4C9.33981 2.4 9.48495 2.3425 9.60208 2.2275C9.71921 2.1125 9.77778 1.97 9.77778 1.8C9.77778 1.63 9.71921 1.4875 9.60208 1.3725C9.48495 1.2575 9.33981 1.2 9.16667 1.2C8.99352 1.2 8.84838 1.2575 8.73125 1.3725C8.61412 1.4875 8.55556 1.63 8.55556 1.8C8.55556 1.97 8.61412 2.1125 8.73125 2.2275C8.84838 2.3425 8.99352 2.4 9.16667 2.4ZM1.83333 6.6C2.00648 6.6 2.15162 6.5425 2.26875 6.4275C2.38588 6.3125 2.44444 6.17 2.44444 6C2.44444 5.83 2.38588 5.6875 2.26875 5.5725C2.15162 5.4575 2.00648 5.4 1.83333 5.4C1.66019 5.4 1.51505 5.4575 1.39792 5.5725C1.28079 5.6875 1.22222 5.83 1.22222 6C1.22222 6.17 1.28079 6.3125 1.39792 6.4275C1.51505 6.5425 1.66019 6.6 1.83333 6.6ZM9.16667 10.8C9.33981 10.8 9.48495 10.7425 9.60208 10.6275C9.71921 10.5125 9.77778 10.37 9.77778 10.2C9.77778 10.03 9.71921 9.8875 9.60208 9.7725C9.48495 9.6575 9.33981 9.6 9.16667 9.6C8.99352 9.6 8.84838 9.6575 8.73125 9.7725C8.61412 9.8875 8.55556 10.03 8.55556 10.2C8.55556 10.37 8.61412 10.5125 8.73125 10.6275C8.84838 10.7425 8.99352 10.8 9.16667 10.8Z" fill="white"/>
</svg>
