<svg width="23" height="23" viewBox="0 0 23 23" fill="none" xmlns="http://www.w3.org/2000/svg">
<path d="M19.1667 12.4583V10.5417C19.1667 10.2821 19.0718 10.0575 18.8822 9.86784C18.6925 9.67817 18.4679 9.58333 18.2083 9.58333H10.6914L13.5215 6.75325C13.7112 6.56358 13.806 6.33898 13.806 6.07943C13.806 5.81988 13.7112 5.59527 13.5215 5.4056L12.1589 4.04297C11.9792 3.86328 11.7546 3.77344 11.485 3.77344C11.2155 3.77344 10.9909 3.86328 10.8112 4.04297L5.39062 9.46354L4.02799 10.8262C3.84831 11.0059 3.75846 11.2305 3.75846 11.5C3.75846 11.7695 3.84831 11.9941 4.02799 12.1738L5.39062 13.5365L10.8112 18.957C10.9909 19.1367 11.2155 19.2266 11.485 19.2266C11.7546 19.2266 11.9792 19.1367 12.1589 18.957L13.5215 17.5944C13.7012 17.4147 13.791 17.1901 13.791 16.9206C13.791 16.651 13.7012 16.4264 13.5215 16.2467L10.6914 13.4167H18.2083C18.4679 13.4167 18.6925 13.3218 18.8822 13.1322C19.0718 12.9425 19.1667 12.7179 19.1667 12.4583ZM23 11.5C23 13.5864 22.4859 15.5105 21.4577 17.2725C20.4295 19.0344 19.0344 20.4295 17.2725 21.4577C15.5105 22.4859 13.5864 23 11.5 23C9.41363 23 7.48947 22.4859 5.72754 21.4577C3.9656 20.4295 2.57053 19.0344 1.54232 17.2725C0.514106 15.5105 0 13.5864 0 11.5C0 9.41363 0.514106 7.48947 1.54232 5.72754C2.57053 3.9656 3.9656 2.57053 5.72754 1.54232C7.48947 0.514106 9.41363 0 11.5 0C13.5864 0 15.5105 0.514106 17.2725 1.54232C19.0344 2.57053 20.4295 3.9656 21.4577 5.72754C22.4859 7.48947 23 9.41363 23 11.5Z" fill="white"/>
</svg>
