<svg width="30" height="30" viewBox="0 0 30 30" fill="none" xmlns="http://www.w3.org/2000/svg">
<g clip-path="url(#clip0_9_220)">
<path d="M15 0C6.72885 0 0 6.72916 0 15C0 23.2708 6.72885 30 15 30C23.2711 30 30 23.2708 30 15C30 6.72916 23.2711 0 15 0ZM15 26.9466C8.41252 26.9466 3.05343 21.5875 3.05343 15C3.05343 8.41252 8.41252 3.05343 15 3.05343C21.5875 3.05343 26.9466 8.41252 26.9466 15C26.9466 21.5875 21.5875 26.9466 15 26.9466Z" fill="black"/>
<path d="M23.6018 10.0846L21.6855 8.16793C21.5505 8.03297 21.3108 8.03297 21.1761 8.16793L12.1129 17.2311L8.82378 13.9423C8.68912 13.8073 8.44973 13.8073 8.31447 13.9423L6.39813 15.8586C6.33034 15.9264 6.29248 16.0177 6.29248 16.1133C6.29248 16.2088 6.33034 16.3005 6.39813 16.3679L11.8583 21.8278C11.9285 21.8977 12.0204 21.9334 12.1129 21.9334C12.2048 21.9334 12.2974 21.8983 12.3676 21.8278L23.6018 10.5936C23.6696 10.5261 23.7077 10.4345 23.7077 10.3389C23.7077 10.2434 23.6696 10.1521 23.6018 10.0846Z" fill="black"/>
</g>
<defs>
<clipPath id="clip0_9_220">
<rect width="30" height="30" fill="white"/>
</clipPath>
</defs>
</svg>
