<svg width="13" height="12" viewBox="0 0 13 12" fill="none" xmlns="http://www.w3.org/2000/svg">
<path d="M11.8037 1.01148C11.4829 0.690649 11.102 0.436183 10.6828 0.262628C10.2635 0.0890724 9.81422 -0.000170136 9.36049 2.43503e-07C8.90676 0.000170623 8.45751 0.0897506 8.03842 0.263621C7.61933 0.437491 7.2386 0.692243 6.91801 1.01332L6.49952 1.4369L6.08452 1.01423L6.08182 1.01154C5.76114 0.690853 5.38044 0.436473 4.96144 0.26292C4.54245 0.0893676 4.09338 4.11029e-05 3.63987 4.11029e-05C3.18635 4.11029e-05 2.73728 0.0893676 2.31829 0.26292C1.8993 0.436473 1.51859 0.690853 1.19791 1.01154L1.01148 1.19797C0.363841 1.84561 0 2.724 0 3.63991C0 4.55581 0.363841 5.43421 1.01148 6.08185L5.93189 11.0022L6.48755 11.5844L6.50079 11.5711L6.51517 11.5855L7.03578 11.0362L11.9902 6.08177C12.6368 5.43361 13 4.55541 13 3.63983C13 2.72424 12.6368 1.84605 11.9902 1.19789L11.8037 1.01148ZM11.3795 5.47129L6.50079 10.3502L1.62193 5.47129C1.1362 4.98556 0.863322 4.32677 0.863322 3.63984C0.863322 2.95291 1.1362 2.29412 1.62193 1.80839L1.80839 1.62196C2.29388 1.13647 2.95228 0.863607 3.63887 0.863349C4.32546 0.863091 4.98406 1.13546 5.46992 1.62058L6.49766 2.66705L7.53029 1.62196C7.7708 1.38145 8.05633 1.19066 8.37058 1.0605C8.68482 0.930331 9.02162 0.863336 9.36176 0.863336C9.70189 0.863336 10.0387 0.930331 10.3529 1.0605C10.6672 1.19066 10.9527 1.38145 11.1932 1.62196L11.3797 1.80836C11.8647 2.29449 12.137 2.95316 12.137 3.63985C12.137 4.32654 11.8646 4.98519 11.3795 5.47129Z" fill="black"/>
</svg>
