<svg width="18" height="24" viewBox="0 0 18 24" fill="none" xmlns="http://www.w3.org/2000/svg">
<path d="M2.02441 8.04999C2.39921 11.2348 5.28921 14.0264 8.80241 14.0264C12.5704 14.0264 15.6244 10.8168 15.6244 7.35319C15.6244 7.32359 15.6224 7.29479 15.622 7.26639C11.7348 6.73879 6.78241 9.56319 2.02441 8.04999Z" fill="black"/>
<path d="M17.6 7.378C17.6 2.8168 15.3168 0.0008 15.3164 0H2.2832C2.2832 0 0 2.8208 0 7.378C0 11.7092 3.7024 15.7324 8.358 15.9736C8.3036 18.4888 8.0896 21.108 7.4736 22.0152C6.606 23.2936 3.5652 22.6368 3.5652 24H14.036C14.036 22.6364 10.994 23.2936 10.1264 22.0152C9.5104 21.108 9.2964 18.4892 9.242 15.9736C13.8964 15.7328 17.6 11.7092 17.6 7.378ZM8.8 14.9016C4.8824 14.9016 1.66 11.7892 1.2424 8.2384C1.212 7.9808 1.194 7.7224 1.194 7.462C1.194 3.522 3.1672 1.0844 3.1672 1.0844H14.4324C14.4328 1.0856 16.3708 3.48 16.4032 7.3652C16.4036 7.3972 16.406 7.4288 16.406 7.462C16.406 11.3232 13.0008 14.9016 8.8 14.9016Z" fill="black"/>
</svg>
