<svg width="13" height="13" viewBox="0 0 13 13" fill="none" xmlns="http://www.w3.org/2000/svg">
<path d="M4.875 2.41562C5.36874 2.25857 5.9098 2.16666 6.5 2.16666C8.76519 2.16666 10.3068 3.52059 11.2261 4.71484C11.6865 5.31294 11.9167 5.61198 11.9167 6.49999C11.9167 7.388 11.6865 7.68705 11.2261 8.28516C10.3068 9.47937 8.76519 10.8333 6.5 10.8333C4.23481 10.8333 2.69314 9.47937 1.7739 8.28516C1.31352 7.68705 1.08333 7.388 1.08333 6.49999C1.08333 5.61198 1.31352 5.31294 1.7739 4.71484C2.03456 4.37619 2.34527 4.02471 2.70833 3.6949" stroke="white" stroke-width="1.216" stroke-linecap="round"/>
<path d="M8.125 6.5C8.125 7.39749 7.39749 8.125 6.5 8.125C5.60251 8.125 4.875 7.39749 4.875 6.5C4.875 5.60251 5.60251 4.875 6.5 4.875C7.39749 4.875 8.125 5.60251 8.125 6.5Z" stroke="white" stroke-width="1.216"/>
</svg>
