<svg width="44" height="47" viewBox="0 0 44 47" fill="none" xmlns="http://www.w3.org/2000/svg">
<path d="M0 0H43.7383V46.1986H0V0Z" fill="white"/>
<path d="M37.7425 37.1321L31.5463 30.6066C33.5454 27.9164 34.6302 24.5943 34.6262 21.1744C34.6262 18.1286 33.7711 15.1513 32.1691 12.6188C30.5671 10.0864 28.2901 8.11261 25.626 6.94705C22.962 5.7815 20.0306 5.47654 17.2024 6.07073C14.3743 6.66492 11.7765 8.13159 9.73752 10.2853C7.69854 12.4389 6.30999 15.1828 5.74744 18.1701C5.18489 21.1573 5.47361 24.2536 6.57709 27.0675C7.68057 29.8814 9.54926 32.2865 11.9468 33.9786C14.3444 35.6707 17.1632 36.5739 20.0467 36.5739C23.2846 36.5781 26.4297 35.4324 28.9766 33.3207L35.1547 39.8655C35.3241 40.046 35.5257 40.1892 35.7477 40.2869C35.9698 40.3846 36.208 40.4349 36.4486 40.4349C36.6892 40.4349 36.9274 40.3846 37.1495 40.2869C37.3715 40.1892 37.5731 40.046 37.7425 39.8655C37.9133 39.6866 38.0489 39.4737 38.1414 39.2391C38.234 39.0046 38.2816 38.753 38.2816 38.4988C38.2816 38.2447 38.234 37.9931 38.1414 37.7586C38.0489 37.524 37.9133 37.3111 37.7425 37.1321ZM9.11216 21.1744C9.11216 18.8901 9.75346 16.6571 10.955 14.7577C12.1565 12.8584 13.8642 11.378 15.8623 10.5039C17.8603 9.62971 20.0589 9.40099 22.18 9.84664C24.3011 10.2923 26.2494 11.3923 27.7787 13.0075C29.3079 14.6228 30.3493 16.6807 30.7712 18.9211C31.1931 21.1616 30.9766 23.4838 30.149 25.5942C29.3214 27.7046 27.9198 29.5085 26.1217 30.7775C24.3235 32.0466 22.2094 32.724 20.0467 32.724C17.1467 32.724 14.3655 31.5072 12.3148 29.3412C10.2642 27.1752 9.11216 24.2375 9.11216 21.1744Z" fill="#231F20" fill-opacity="0.6"/>
</svg>
