<svg width="20" height="17" viewBox="0 0 20 17" fill="none" xmlns="http://www.w3.org/2000/svg">
<path d="M17.3202 1.4842C16.8495 1.01343 16.2905 0.640034 15.6754 0.385368C15.0602 0.130701 14.4009 -0.00024965 13.7351 3.57305e-07C13.0694 0.000250364 12.4102 0.131696 11.7952 0.386825C11.1802 0.641953 10.6216 1.01576 10.1512 1.48689L9.5371 2.10844L8.92814 1.48824L8.92418 1.48428C8.45363 1.01373 7.895 0.64046 7.28019 0.385797C6.66538 0.131134 6.00644 6.03124e-05 5.34097 6.03124e-05C4.67551 6.03124e-05 4.01656 0.131134 3.40175 0.385797C2.78694 0.64046 2.22831 1.01373 1.75776 1.48428L1.4842 1.75784C0.533883 2.70816 0 3.99708 0 5.34103C0 6.68499 0.533883 7.9739 1.4842 8.92422L8.70418 16.1441L9.51952 16.9984L9.53896 16.9789L9.56006 17L10.324 16.194L17.5938 8.9241C18.5427 7.97302 19.0756 6.6844 19.0756 5.34091C19.0756 3.99743 18.5427 2.7088 17.5938 1.75772L17.3202 1.4842ZM16.6978 8.02832L9.53896 15.1873L2.37994 8.02832C1.66721 7.31558 1.2668 6.3489 1.2668 5.34093C1.2668 4.33297 1.66721 3.36629 2.37994 2.65355L2.65354 2.37998C3.36594 1.6676 4.33203 1.26722 5.3395 1.26684C6.34697 1.26646 7.31337 1.66611 8.0263 2.37797L9.53437 3.91351L11.0496 2.37998C11.4025 2.02707 11.8215 1.74712 12.2826 1.55612C12.7437 1.36512 13.2379 1.26682 13.737 1.26682C14.2361 1.26682 14.7303 1.36512 15.1914 1.55612C15.6525 1.74712 16.0715 2.02707 16.4244 2.37998L16.698 2.65351C17.4096 3.36683 17.8093 4.33332 17.8093 5.34095C17.8092 6.34857 17.4095 7.31503 16.6978 8.02832Z" fill="white"/>
</svg>
