<svg width="15" height="17" viewBox="0 0 15 17" fill="none" xmlns="http://www.w3.org/2000/svg">
<path d="M12.5 17C11.8056 17 11.2153 16.7521 10.7292 16.2563C10.2431 15.7604 10 15.1583 10 14.45C10 14.3508 10.0069 14.2481 10.0208 14.1419C10.0347 14.0356 10.0556 13.94 10.0833 13.855L4.20833 10.37C3.97222 10.5825 3.70833 10.749 3.41667 10.8694C3.125 10.9898 2.81944 11.05 2.5 11.05C1.80556 11.05 1.21528 10.8021 0.729167 10.3063C0.243056 9.81042 0 9.20833 0 8.5C0 7.79167 0.243056 7.18958 0.729167 6.69375C1.21528 6.19792 1.80556 5.95 2.5 5.95C2.81944 5.95 3.125 6.01021 3.41667 6.13063C3.70833 6.25104 3.97222 6.4175 4.20833 6.63L10.0833 3.145C10.0556 3.06 10.0347 2.96438 10.0208 2.85812C10.0069 2.75187 10 2.64917 10 2.55C10 1.84167 10.2431 1.23958 10.7292 0.74375C11.2153 0.247917 11.8056 0 12.5 0C13.1944 0 13.7847 0.247917 14.2708 0.74375C14.7569 1.23958 15 1.84167 15 2.55C15 3.25833 14.7569 3.86042 14.2708 4.35625C13.7847 4.85208 13.1944 5.1 12.5 5.1C12.1806 5.1 11.875 5.03979 11.5833 4.91937C11.2917 4.79896 11.0278 4.6325 10.7917 4.42L4.91667 7.905C4.94444 7.99 4.96528 8.08562 4.97917 8.19188C4.99306 8.29813 5 8.40083 5 8.5C5 8.59917 4.99306 8.70187 4.97917 8.80813C4.96528 8.91438 4.94444 9.01 4.91667 9.095L10.7917 12.58C11.0278 12.3675 11.2917 12.201 11.5833 12.0806C11.875 11.9602 12.1806 11.9 12.5 11.9C13.1944 11.9 13.7847 12.1479 14.2708 12.6438C14.7569 13.1396 15 13.7417 15 14.45C15 15.1583 14.7569 15.7604 14.2708 16.2563C13.7847 16.7521 13.1944 17 12.5 17ZM12.5 3.4C12.7361 3.4 12.934 3.31854 13.0938 3.15563C13.2535 2.99271 13.3333 2.79083 13.3333 2.55C13.3333 2.30917 13.2535 2.10729 13.0938 1.94438C12.934 1.78146 12.7361 1.7 12.5 1.7C12.2639 1.7 12.066 1.78146 11.9062 1.94438C11.7465 2.10729 11.6667 2.30917 11.6667 2.55C11.6667 2.79083 11.7465 2.99271 11.9062 3.15563C12.066 3.31854 12.2639 3.4 12.5 3.4ZM2.5 9.35C2.73611 9.35 2.93403 9.26854 3.09375 9.10563C3.25347 8.94271 3.33333 8.74083 3.33333 8.5C3.33333 8.25917 3.25347 8.05729 3.09375 7.89437C2.93403 7.73146 2.73611 7.65 2.5 7.65C2.26389 7.65 2.06597 7.73146 1.90625 7.89437C1.74653 8.05729 1.66667 8.25917 1.66667 8.5C1.66667 8.74083 1.74653 8.94271 1.90625 9.10563C2.06597 9.26854 2.26389 9.35 2.5 9.35ZM12.5 15.3C12.7361 15.3 12.934 15.2185 13.0938 15.0556C13.2535 14.8927 13.3333 14.6908 13.3333 14.45C13.3333 14.2092 13.2535 14.0073 13.0938 13.8444C12.934 13.6815 12.7361 13.6 12.5 13.6C12.2639 13.6 12.066 13.6815 11.9062 13.8444C11.7465 14.0073 11.6667 14.2092 11.6667 14.45C11.6667 14.6908 11.7465 14.8927 11.9062 15.0556C12.066 15.2185 12.2639 15.3 12.5 15.3Z" fill="white"/>
</svg>
